<svg width="1366" height="768" viewBox="0 0 1366 768" fill="none" xmlns="http://www.w3.org/2000/svg">
<g clip-path="url(#clip0_7958_101470)">
<rect width="1366" height="768" fill="white"/>
<g opacity="0.12">
<path d="M1536.74 786.742C1536.74 786.742 1405.96 860.059 1197.57 860.059C989.175 860.059 933.178 668.896 670.197 668.896C407.216 668.896 352.497 973.81 -1 973.81" stroke="#6E62FF" stroke-width="0.5428" stroke-miterlimit="10"/>
<path opacity="0.9756" d="M1536.74 783.543C1536.74 783.543 1405.96 864.666 1197.57 864.666C989.175 864.666 933.178 661.859 670.197 661.859C407.216 661.859 352.497 964.982 -1 964.982" stroke="#6E62FF" stroke-width="0.5362" stroke-miterlimit="10"/>
<path opacity="0.9512" d="M1536.74 780.344C1536.74 780.344 1405.96 869.272 1197.57 869.272C989.175 869.272 933.178 654.821 670.197 654.821C407.216 654.821 352.497 956.025 -1 956.025" stroke="#6E62FF" stroke-width="0.5296" stroke-miterlimit="10"/>
<path opacity="0.9268" d="M1536.74 777.145C1536.74 777.145 1405.96 873.878 1197.57 873.878C989.175 873.878 933.178 647.784 670.197 647.784C407.216 647.784 352.625 947.196 -1 947.196" stroke="#6E62FF" stroke-width="0.523" stroke-miterlimit="10"/>
<path opacity="0.9024" d="M1536.74 773.819C1536.74 773.819 1405.96 878.229 1197.57 878.229C989.175 878.229 933.178 640.747 670.197 640.747C407.216 640.747 352.497 938.367 -1 938.367" stroke="#6E62FF" stroke-width="0.5164" stroke-miterlimit="10"/>
<path opacity="0.878" d="M1536.74 770.62C1536.74 770.62 1405.96 882.835 1197.57 882.835C989.175 882.835 933.178 633.709 670.197 633.709C407.216 633.709 352.497 929.538 -1 929.538" stroke="#6E62FF" stroke-width="0.5097" stroke-miterlimit="10"/>
<path opacity="0.8537" d="M1536.74 767.421C1536.74 767.421 1405.96 887.441 1197.57 887.441C989.175 887.441 933.178 626.799 670.197 626.799C407.216 626.799 352.497 920.709 -1 920.709" stroke="#6E62FF" stroke-width="0.5031" stroke-miterlimit="10"/>
<path opacity="0.8293" d="M1536.74 764.222C1536.74 764.222 1405.96 892.048 1197.57 892.048C989.175 892.048 933.178 619.762 670.197 619.762C407.216 619.762 352.497 911.88 -1 911.88" stroke="#6E62FF" stroke-width="0.4965" stroke-miterlimit="10"/>
<path opacity="0.8049" d="M1536.74 761.023C1536.74 761.023 1405.96 896.654 1197.57 896.654C989.175 896.654 933.178 612.725 670.197 612.725C407.216 612.725 352.497 903.052 -1 903.052" stroke="#6E62FF" stroke-width="0.4899" stroke-miterlimit="10"/>
<path opacity="0.7805" d="M1536.74 757.696C1536.74 757.696 1405.96 901.005 1197.57 901.005C989.175 901.005 933.178 605.687 670.197 605.687C407.216 605.687 352.497 894.223 -1 894.223" stroke="#6E62FF" stroke-width="0.4833" stroke-miterlimit="10"/>
<path opacity="0.7561" d="M1536.74 754.497C1536.74 754.497 1405.96 905.611 1197.57 905.611C989.175 905.611 933.178 598.649 670.197 598.649C407.216 598.649 352.497 885.394 -1 885.394" stroke="#6E62FF" stroke-width="0.4766" stroke-miterlimit="10"/>
<path opacity="0.7317" d="M1536.74 751.299C1536.74 751.299 1405.96 910.217 1197.57 910.217C989.175 910.217 933.178 591.612 670.197 591.612C407.216 591.612 352.497 876.566 -1 876.566" stroke="#6E62FF" stroke-width="0.47" stroke-miterlimit="10"/>
<path opacity="0.7073" d="M1536.74 748.1C1536.74 748.1 1405.96 914.824 1197.57 914.824C989.175 914.824 933.178 584.703 670.197 584.703C407.216 584.703 352.497 867.737 -1 867.737" stroke="#6E62FF" stroke-width="0.4634" stroke-miterlimit="10"/>
<path opacity="0.6829" d="M1536.74 744.773C1536.74 744.773 1405.96 919.302 1197.57 919.302C989.175 919.302 933.178 577.665 670.197 577.665C407.216 577.665 352.497 858.78 -1 858.78" stroke="#6E62FF" stroke-width="0.4568" stroke-miterlimit="10"/>
<path opacity="0.6585" d="M1536.74 741.574C1536.74 741.574 1405.96 923.78 1197.57 923.78C989.175 923.78 933.178 570.627 670.197 570.627C407.216 570.627 352.497 849.951 -1 849.951" stroke="#6E62FF" stroke-width="0.4502" stroke-miterlimit="10"/>
<path opacity="0.6341" d="M1536.74 738.375C1536.74 738.375 1405.96 928.387 1197.57 928.387C989.175 928.387 933.178 563.59 670.197 563.59C407.216 563.59 352.497 841.122 -1 841.122" stroke="#6E62FF" stroke-width="0.4435" stroke-miterlimit="10"/>
<path opacity="0.6098" d="M1536.74 735.176C1536.74 735.176 1405.96 932.993 1197.57 932.993C989.175 932.993 933.178 556.553 670.197 556.553C407.216 556.553 352.497 832.293 -1 832.293" stroke="#6E62FF" stroke-width="0.4369" stroke-miterlimit="10"/>
<path opacity="0.5854" d="M1536.74 731.977C1536.74 731.977 1405.96 937.599 1197.57 937.599C989.175 937.599 933.178 549.515 670.197 549.515C407.216 549.515 352.497 823.464 -1 823.464" stroke="#6E62FF" stroke-width="0.4303" stroke-miterlimit="10"/>
<path opacity="0.561" d="M1536.74 728.651C1536.74 728.651 1405.96 942.078 1197.57 942.078C989.175 942.078 933.178 542.606 670.197 542.606C407.216 542.606 352.497 814.636 -1 814.636" stroke="#6E62FF" stroke-width="0.4237" stroke-miterlimit="10"/>
<path opacity="0.5366" d="M1536.74 725.452C1536.74 725.452 1405.96 946.556 1197.57 946.556C989.175 946.556 933.178 535.568 670.197 535.568C407.216 535.568 352.497 805.807 -1 805.807" stroke="#6E62FF" stroke-width="0.4171" stroke-miterlimit="10"/>
<path opacity="0.5122" d="M1536.74 722.253C1536.74 722.253 1405.96 951.162 1197.57 951.162C989.175 951.162 933.178 528.531 670.197 528.531C407.216 528.531 352.497 796.978 -1 796.978" stroke="#6E62FF" stroke-width="0.4104" stroke-miterlimit="10"/>
<path opacity="0.4878" d="M1536.74 719.054C1536.74 719.054 1405.96 955.769 1197.57 955.769C989.175 955.769 933.178 521.493 670.197 521.493C407.216 521.493 352.497 788.149 -1 788.149" stroke="#6E62FF" stroke-width="0.4038" stroke-miterlimit="10"/>
<path opacity="0.4634" d="M1536.74 715.728C1536.74 715.728 1405.96 960.247 1197.57 960.247C989.175 960.247 933.178 514.456 670.197 514.456C407.216 514.456 352.497 779.321 -1 779.321" stroke="#6E62FF" stroke-width="0.3972" stroke-miterlimit="10"/>
<path opacity="0.439" d="M1536.74 712.529C1536.74 712.529 1405.96 964.854 1197.57 964.854C989.175 964.854 933.178 507.418 670.197 507.418C407.216 507.418 352.497 770.492 -1 770.492" stroke="#6E62FF" stroke-width="0.3906" stroke-miterlimit="10"/>
<path opacity="0.4146" d="M1536.74 709.33C1536.74 709.33 1405.96 969.332 1197.57 969.332C989.175 969.332 933.178 500.509 670.197 500.509C407.216 500.509 352.497 761.535 -1 761.535" stroke="#6E62FF" stroke-width="0.384" stroke-miterlimit="10"/>
<path opacity="0.3902" d="M1536.74 706.131C1536.74 706.131 1405.96 973.939 1197.57 973.939C989.175 973.939 933.178 493.472 670.197 493.472C407.216 493.472 352.497 752.706 -1 752.706" stroke="#6E62FF" stroke-width="0.3773" stroke-miterlimit="10"/>
<path opacity="0.3659" d="M1536.74 702.932C1536.74 702.932 1405.96 978.545 1197.57 978.545C989.175 978.545 933.178 486.434 670.197 486.434C407.216 486.434 352.497 743.877 -1 743.877" stroke="#6E62FF" stroke-width="0.3707" stroke-miterlimit="10"/>
<path opacity="0.3415" d="M1536.74 699.605C1536.74 699.605 1405.96 983.023 1197.57 983.023C989.175 983.023 933.178 479.396 670.197 479.396C407.216 479.396 352.497 735.048 -1 735.048" stroke="#6E62FF" stroke-width="0.3641" stroke-miterlimit="10"/>
<path opacity="0.3171" d="M1536.74 696.406C1536.74 696.406 1405.96 987.629 1197.57 987.629C989.175 987.629 933.178 472.359 670.197 472.359C407.216 472.359 352.497 726.219 -1 726.219" stroke="#6E62FF" stroke-width="0.3575" stroke-miterlimit="10"/>
<path opacity="0.2927" d="M1536.74 693.208C1536.74 693.208 1405.96 992.108 1197.57 992.108C989.175 992.108 933.178 465.322 670.197 465.322C407.216 465.322 352.625 717.391 -1 717.391" stroke="#6E62FF" stroke-width="0.3509" stroke-miterlimit="10"/>
<path opacity="0.2683" d="M1536.74 690.009C1536.74 690.009 1405.96 996.714 1197.57 996.714C989.175 996.714 933.178 458.412 670.197 458.412C407.216 458.412 352.497 708.562 -1 708.562" stroke="#6E62FF" stroke-width="0.3442" stroke-miterlimit="10"/>
<path opacity="0.2439" d="M1536.74 686.682C1536.74 686.682 1405.96 1001.19 1197.57 1001.19C989.175 1001.19 933.178 451.375 670.197 451.375C407.216 451.375 352.497 699.733 -1 699.733" stroke="#6E62FF" stroke-width="0.3376" stroke-miterlimit="10"/>
<path opacity="0.2195" d="M1536.74 683.483C1536.74 683.483 1405.96 1005.8 1197.57 1005.8C989.175 1005.8 933.178 444.337 670.197 444.337C407.216 444.337 352.497 690.904 -1 690.904" stroke="#6E62FF" stroke-width="0.331" stroke-miterlimit="10"/>
<path opacity="0.1951" d="M1536.74 680.284C1536.74 680.284 1405.96 1010.41 1197.57 1010.41C989.175 1010.41 933.178 437.3 670.197 437.3C407.216 437.3 352.497 682.076 -1 682.076" stroke="#6E62FF" stroke-width="0.3244" stroke-miterlimit="10"/>
<path opacity="0.1707" d="M1536.74 677.085C1536.74 677.085 1405.96 1014.88 1197.57 1014.88C989.175 1014.88 933.178 430.262 670.197 430.262C407.216 430.262 352.497 673.247 -1 673.247" stroke="#6E62FF" stroke-width="0.3178" stroke-miterlimit="10"/>
<path opacity="0.1463" d="M1536.74 673.758C1536.74 673.758 1405.96 1019.36 1197.57 1019.36C989.175 1019.36 933.178 423.225 670.197 423.225C407.216 423.225 352.497 664.29 -1 664.29" stroke="#6E62FF" stroke-width="0.3111" stroke-miterlimit="10"/>
<path opacity="0.122" d="M1536.74 670.56C1536.74 670.56 1405.96 1023.97 1197.57 1023.97C989.175 1023.97 933.178 416.315 670.197 416.315C407.216 416.315 352.625 655.589 -1 655.589" stroke="#6E62FF" stroke-width="0.3045" stroke-miterlimit="10"/>
<path opacity="0.097561" d="M1536.74 667.361C1536.74 667.361 1405.96 1028.57 1197.57 1028.57C989.175 1028.57 933.178 409.278 670.197 409.278C407.216 409.278 352.497 646.632 -1 646.632" stroke="#6E62FF" stroke-width="0.2979" stroke-miterlimit="10"/>
<path opacity="0.0731707" d="M1536.74 664.162C1536.74 664.162 1405.96 1033.18 1197.57 1033.18C989.175 1033.18 933.178 402.24 670.197 402.24C407.216 402.24 352.497 637.803 -1 637.803" stroke="#6E62FF" stroke-width="0.2913" stroke-miterlimit="10"/>
<path opacity="0.0487805" d="M1536.74 660.963C1536.74 660.963 1405.96 1037.66 1197.57 1037.66C989.175 1037.66 933.178 395.203 670.197 395.203C407.216 395.203 352.497 628.974 -1 628.974" stroke="#6E62FF" stroke-width="0.2847" stroke-miterlimit="10"/>
<path opacity="0.0243902" d="M1536.74 657.636C1536.74 657.636 1405.96 1042.14 1197.57 1042.14C989.175 1042.14 933.178 388.166 670.197 388.166C407.216 388.166 352.497 620.146 -1 620.146" stroke="#6E62FF" stroke-width="0.278" stroke-miterlimit="10"/>
</g>
<g opacity="0.1" clip-path="url(#clip1_7958_101470)">
<path d="M0.113281 155.878C0.113281 155.878 116.199 221.269 301.164 221.269C486.13 221.269 535.832 134.994 769.252 134.994C1002.67 134.994 1051.13 322.609 1365 322.609" stroke="#6E62FF" stroke-width="0.5428" stroke-miterlimit="10"/>
<path opacity="0.9756" d="M0.113281 153.025C0.113281 153.025 121.986 225.377 306.838 225.377C491.804 225.377 535.832 126.777 769.252 126.777C1002.67 126.777 1051.13 314.848 1365 314.848" stroke="#6E62FF" stroke-width="0.5362" stroke-miterlimit="10"/>
<path opacity="0.9512" d="M0.113281 150.172C0.113281 150.172 127.66 229.486 312.626 229.486C497.591 229.486 535.832 118.446 769.252 118.446C1002.67 118.446 1051.13 306.974 1365 306.974" stroke="#6E62FF" stroke-width="0.5296" stroke-miterlimit="10"/>
<path opacity="0.9268" d="M0.113281 147.319C0.113281 147.319 133.447 233.594 318.413 233.594C503.378 233.594 535.946 110.229 769.366 110.229C1002.79 110.229 1051.24 299.1 1365.11 299.1" stroke="#6E62FF" stroke-width="0.523" stroke-miterlimit="10"/>
<path opacity="0.9024" d="M0.113281 144.351C0.113281 144.351 139.121 237.474 324.087 237.474C509.052 237.474 535.832 101.67 769.252 101.67C1002.67 101.67 1051.13 290.997 1365 290.997" stroke="#6E62FF" stroke-width="0.5164" stroke-miterlimit="10"/>
<path opacity="0.878" d="M0.113281 141.499C0.113281 141.499 144.908 241.583 329.874 241.583C514.839 241.583 535.832 93.4536 769.366 93.4536C1002.9 93.4536 1051.24 283.237 1365.11 283.237" stroke="#6E62FF" stroke-width="0.5097" stroke-miterlimit="10"/>
<path opacity="0.8537" d="M0.113281 138.645C0.113281 138.645 150.582 245.691 335.548 245.691C520.513 245.691 535.832 85.1226 769.252 85.1226C1002.67 85.1226 1051.13 275.362 1365 275.362" stroke="#6E62FF" stroke-width="0.5031" stroke-miterlimit="10"/>
<path opacity="0.8293" d="M0.113281 135.792C0.113281 135.792 156.369 249.799 341.335 249.799C526.3 249.799 535.832 76.906 769.252 76.906C1002.67 76.906 1051.13 267.488 1365 267.488" stroke="#6E62FF" stroke-width="0.4965" stroke-miterlimit="10"/>
<path opacity="0.8049" d="M0.113281 132.939C0.113281 132.939 162.157 253.908 347.122 253.908C532.088 253.908 535.946 68.6892 769.366 68.6892C1002.79 68.6892 1051.24 259.614 1365 259.614" stroke="#6E62FF" stroke-width="0.4899" stroke-miterlimit="10"/>
<path opacity="0.7805" d="M0.113281 129.972C0.113281 129.972 167.83 257.788 352.796 257.788C537.761 257.788 535.832 60.1301 769.252 60.1301C1002.67 60.1301 1051.13 251.625 1365 251.625" stroke="#6E62FF" stroke-width="0.4833" stroke-miterlimit="10"/>
<path opacity="0.7561" d="M0.113281 127.119C0.113281 127.119 173.618 261.896 358.583 261.896C543.549 261.896 535.946 51.9133 769.366 51.9133C1002.79 51.9133 1051.24 243.865 1365.11 243.865" stroke="#6E62FF" stroke-width="0.4766" stroke-miterlimit="10"/>
<path opacity="0.7317" d="M0.113281 124.266C0.113281 124.266 179.292 266.004 364.257 266.004C549.222 266.004 535.832 43.5825 769.252 43.5825C1002.67 43.5825 1051.13 235.876 1365 235.876" stroke="#6E62FF" stroke-width="0.47" stroke-miterlimit="10"/>
<path opacity="0.7073" d="M0.113281 121.413C0.113281 121.413 185.079 270.113 370.044 270.113C555.01 270.113 535.832 35.366 769.252 35.366C1002.67 35.366 1051.13 228.116 1365 228.116" stroke="#6E62FF" stroke-width="0.4634" stroke-miterlimit="10"/>
<path opacity="0.6829" d="M0.113281 118.446C0.113281 118.446 190.866 274.107 375.718 274.107C560.684 274.107 535.832 26.9209 769.252 26.9209C1002.67 26.9209 1051.13 220.128 1365 220.128" stroke="#6E62FF" stroke-width="0.4568" stroke-miterlimit="10"/>
<path opacity="0.6585" d="M0.113281 115.593C0.113281 115.593 196.54 278.101 381.505 278.101C566.471 278.101 535.832 18.5901 769.252 18.5901C1002.67 18.5901 1051.13 212.253 1365 212.253" stroke="#6E62FF" stroke-width="0.4502" stroke-miterlimit="10"/>
<path opacity="0.6341" d="M0.113281 112.74C0.113281 112.74 202.327 282.21 387.293 282.21C572.258 282.21 535.946 10.3733 769.366 10.3733C1002.79 10.3733 1051.24 204.493 1365.11 204.493" stroke="#6E62FF" stroke-width="0.4435" stroke-miterlimit="10"/>
<path opacity="0.6098" d="M0.113281 109.887C0.113281 109.887 208.001 286.318 392.966 286.318C577.932 286.318 535.832 2.04248 769.252 2.04248C1002.67 2.04248 1051.13 196.505 1365 196.505" stroke="#6E62FF" stroke-width="0.4369" stroke-miterlimit="10"/>
<path opacity="0.5854" d="M0.113281 107.034C0.113281 107.034 213.788 290.426 398.754 290.426C583.719 290.426 535.832 -6.17407 769.366 -6.17407C1002.9 -6.17407 1051.24 188.745 1365.11 188.745" stroke="#6E62FF" stroke-width="0.4303" stroke-miterlimit="10"/>
<path opacity="0.561" d="M0.113281 104.067C0.113281 104.067 219.462 294.421 404.427 294.421C589.393 294.421 535.832 -14.6191 769.252 -14.6191C1002.67 -14.6191 1051.13 180.756 1365 180.756" stroke="#6E62FF" stroke-width="0.4237" stroke-miterlimit="10"/>
<path opacity="0.5366" d="M0.113281 101.214C0.113281 101.214 225.249 298.415 410.215 298.415C595.18 298.415 535.832 -22.95 769.252 -22.95C1002.67 -22.95 1051.24 172.882 1365 172.882" stroke="#6E62FF" stroke-width="0.4171" stroke-miterlimit="10"/>
<path opacity="0.5122" d="M0.113281 98.3608C0.113281 98.3608 231.036 302.523 416.002 302.523C600.967 302.523 535.946 -31.2808 769.366 -31.2808C1002.79 -31.2808 1051.24 164.893 1365.11 164.893" stroke="#6E62FF" stroke-width="0.4104" stroke-miterlimit="10"/>
<path opacity="0.4878" d="M0.113281 95.5076C0.113281 95.5076 236.71 306.632 421.676 306.632C606.641 306.632 535.832 -39.4976 769.252 -39.4976C1002.67 -39.4976 1051.13 157.133 1365 157.133" stroke="#6E62FF" stroke-width="0.4038" stroke-miterlimit="10"/>
<path opacity="0.4634" d="M0.113281 92.5406C0.113281 92.5406 242.498 310.626 427.463 310.626C612.429 310.626 535.832 -47.9424 769.366 -47.9424C1002.9 -47.9424 1051.24 149.145 1365.11 149.145" stroke="#6E62FF" stroke-width="0.3972" stroke-miterlimit="10"/>
<path opacity="0.439" d="M0.113281 89.6875C0.113281 89.6875 248.171 314.734 433.137 314.734C618.102 314.734 535.832 -56.1592 769.252 -56.1592C1002.67 -56.1592 1051.13 141.384 1365 141.384" stroke="#6E62FF" stroke-width="0.3906" stroke-miterlimit="10"/>
<path opacity="0.4146" d="M0.113281 86.8345C0.113281 86.8345 253.959 318.728 438.924 318.728C623.89 318.728 535.832 -64.49 769.252 -64.49C1002.67 -64.49 1051.13 133.396 1365 133.396" stroke="#6E62FF" stroke-width="0.384" stroke-miterlimit="10"/>
<path opacity="0.3902" d="M0.113281 83.9815C0.113281 83.9815 259.746 322.837 444.711 322.837C629.677 322.837 535.946 -72.8208 769.366 -72.8208C1002.79 -72.8208 1051.24 125.522 1365.11 125.522" stroke="#6E62FF" stroke-width="0.3773" stroke-miterlimit="10"/>
<path opacity="0.3659" d="M0.113281 81.1284C0.113281 81.1284 265.533 326.945 450.499 326.945C635.464 326.945 535.946 -81.0376 769.366 -81.0376C1002.79 -81.0376 1051.24 117.761 1365.11 117.761" stroke="#6E62FF" stroke-width="0.3707" stroke-miterlimit="10"/>
<path opacity="0.3415" d="M0.113281 78.1614C0.113281 78.1614 271.207 330.939 456.172 330.939C641.138 330.939 535.946 -89.4824 769.366 -89.4824C1002.79 -89.4824 1051.24 109.773 1365.11 109.773" stroke="#6E62FF" stroke-width="0.3641" stroke-miterlimit="10"/>
<path opacity="0.3171" d="M0.113281 75.3083C0.113281 75.3083 276.881 335.048 461.846 335.048C646.812 335.048 535.832 -97.6992 769.252 -97.6992C1002.67 -97.6992 1051.13 102.013 1365 102.013" stroke="#6E62FF" stroke-width="0.3575" stroke-miterlimit="10"/>
<path opacity="0.2927" d="M0.113281 72.4551C0.113281 72.4551 282.668 339.042 467.633 339.042C652.599 339.042 535.832 -106.144 769.366 -106.144C1002.9 -106.144 1051.24 93.9099 1365.11 93.9099" stroke="#6E62FF" stroke-width="0.3509" stroke-miterlimit="10"/>
<path opacity="0.2683" d="M0.113281 69.6023C0.113281 69.6023 288.342 343.15 473.307 343.15C658.273 343.15 535.832 -114.361 769.252 -114.361C1002.67 -114.361 1051.24 86.1498 1365 86.1498" stroke="#6E62FF" stroke-width="0.3442" stroke-miterlimit="10"/>
<path opacity="0.2439" d="M0.113281 66.6352C0.113281 66.6352 294.129 347.145 479.094 347.145C664.06 347.145 535.832 -122.692 769.252 -122.692C1002.67 -122.692 1051.13 78.2755 1365 78.2755" stroke="#6E62FF" stroke-width="0.3376" stroke-miterlimit="10"/>
<path opacity="0.2195" d="M0.113281 63.7819C0.113281 63.7819 299.916 351.253 484.882 351.253C669.847 351.253 535.946 -131.023 769.366 -131.023C1002.79 -131.023 1051.24 70.4009 1365.11 70.4009" stroke="#6E62FF" stroke-width="0.331" stroke-miterlimit="10"/>
<path opacity="0.1951" d="M0.113281 60.929C0.113281 60.929 305.59 355.361 490.556 355.361C675.521 355.361 535.832 -139.239 769.252 -139.239C1002.67 -139.239 1051.13 62.5267 1365 62.5267" stroke="#6E62FF" stroke-width="0.3244" stroke-miterlimit="10"/>
<path opacity="0.1707" d="M0.113281 58.0759C0.113281 58.0759 311.377 359.355 496.343 359.355C681.308 359.355 535.832 -147.684 769.366 -147.684C1002.9 -147.684 1051.24 54.5382 1365.11 54.5382" stroke="#6E62FF" stroke-width="0.3178" stroke-miterlimit="10"/>
<path opacity="0.1463" d="M0.113281 55.1088C0.113281 55.1088 317.051 363.35 502.017 363.35C686.982 363.35 535.832 -156.015 769.252 -156.015C1002.67 -156.015 1051.13 46.6638 1365 46.6638" stroke="#6E62FF" stroke-width="0.3111" stroke-miterlimit="10"/>
<path opacity="0.122" d="M0.113281 52.2558C0.113281 52.2558 322.838 367.458 507.804 367.458C692.769 367.458 535.832 -164.346 769.252 -164.346C1002.67 -164.346 1051.13 38.7895 1365 38.7895" stroke="#6E62FF" stroke-width="0.3045" stroke-miterlimit="10"/>
<path opacity="0.097561" d="M0.113281 49.4027C0.113281 49.4027 328.626 371.566 513.591 371.566C698.557 371.566 535.946 -172.563 769.366 -172.563C1002.79 -172.563 1051.24 30.9151 1365.11 30.9151" stroke="#6E62FF" stroke-width="0.2979" stroke-miterlimit="10"/>
<path opacity="0.0731707" d="M0.113281 46.5497C0.113281 46.5497 334.299 375.675 519.265 375.675C704.344 375.561 535.946 -180.894 769.366 -180.894C1002.79 -180.894 1051.24 23.0407 1365.11 23.0407" stroke="#6E62FF" stroke-width="0.2913" stroke-miterlimit="10"/>
<path opacity="0.0487805" d="M0.113281 43.6967C0.113281 43.6967 340.087 379.669 525.052 379.669C710.018 379.669 535.946 -189.224 769.366 -189.224C1002.79 -189.224 1051.24 15.1664 1365.11 15.1664" stroke="#6E62FF" stroke-width="0.2847" stroke-miterlimit="10"/>
<path opacity="0.0243902" d="M0.113281 40.7295C0.113281 40.7295 345.76 383.663 530.726 383.663C715.691 383.663 535.832 -197.555 769.252 -197.555C1002.67 -197.555 1051.13 7.29208 1365 7.29208" stroke="#6E62FF" stroke-width="0.278" stroke-miterlimit="10"/>
</g>
<path d="M1435.73 -271.748C1171.22 -352.629 914.134 -160.235 806.918 32.8438C710.991 204.987 683.584 470.142 803.643 580.537C891.489 661.019 1000.22 606.218 1156.08 722.372C1257.31 797.706 1250.21 850.218 1312.12 866.949C1460.37 907.085 1727.76 670.287 1776.53 388.369C1817.48 152.299 1717.51 -185.443 1435.73 -271.748Z" fill="#6E62FF"/>
<path d="M1435.73 -271.748C1171.22 -352.629 914.134 -160.235 806.918 32.8438C710.991 204.987 683.584 470.142 803.643 580.537C891.489 661.019 1000.22 606.218 1156.08 722.372C1257.31 797.706 1250.21 850.218 1312.12 866.949C1460.37 907.085 1727.76 670.287 1776.53 388.369C1817.48 152.299 1717.51 -185.443 1435.73 -271.748Z" fill="white" fill-opacity="0.5"/>
</g>
<defs>
<clipPath id="clip0_7958_101470">
<rect width="1366" height="768" fill="white"/>
</clipPath>
<clipPath id="clip1_7958_101470">
<rect width="1367" height="593.658" fill="white" transform="translate(-1 -205.886)"/>
</clipPath>
</defs>
</svg>
