<svg width="660" height="394" viewBox="0 0 660 394" fill="none" xmlns="http://www.w3.org/2000/svg">
<path d="M491.311 392H59.6892C56.3133 392 53.5 389.045 53.5 385.5C53.5 381.955 56.3133 379 59.6892 379H491.311C494.687 379 497.5 381.955 497.5 385.5C497.5 389.045 494.749 392 491.311 392Z" fill="#5C6BB2"/>
<path d="M404.093 119.474C400.861 116.033 401.125 110.674 404.687 107.564L405.083 107.234C408.645 104.124 414.187 104.389 417.419 107.829C420.652 111.27 420.388 116.629 416.826 119.738L416.43 120.069C412.801 123.179 407.326 122.914 404.093 119.474Z" fill="#0E254A"/>
<path d="M410.955 136.279L402.445 143.69L378.3 117.82L386.81 110.409C392.681 105.249 401.191 104.587 407.723 108.16C409.372 109.086 410.889 110.211 412.275 111.667C415.639 115.239 417.156 119.738 416.892 124.238C416.629 128.67 414.649 133.037 410.955 136.279Z" fill="#FF7C71"/>
<path d="M403.236 128.009L394.726 135.419L378.233 117.82L386.744 110.409C392.615 105.249 401.125 104.587 407.656 108.16C408.778 110.674 409.305 113.321 409.108 115.967C408.91 120.466 406.93 124.833 403.236 128.009Z" fill="#FFAC3D"/>
<path d="M402.906 143.557C400.333 145.873 392.747 142.035 385.952 134.956C379.157 127.877 375.726 120.334 378.299 118.018C380.344 116.166 385.49 118.217 390.9 122.65C392.351 123.841 393.802 125.164 395.188 126.619C396.837 128.34 398.288 130.06 399.542 131.78C403.302 137.073 404.819 141.837 402.906 143.557Z" fill="#323966"/>
<path d="M399.542 131.78C397.563 133.963 394.264 134.559 391.494 133.103C388.393 131.383 387.272 127.612 389.053 124.634C389.514 123.84 390.174 123.179 390.9 122.649C392.351 123.84 393.803 125.164 395.188 126.619C396.903 128.339 398.355 130.126 399.542 131.78Z" fill="white"/>
<path d="M447.041 203.038L469.075 131.648L424.413 101.808L415.045 109.748" stroke="#0E254A" stroke-width="5.2291" stroke-miterlimit="10"/>
<path d="M423.819 107.498C426.843 107.498 429.295 105.128 429.295 102.205C429.295 99.2819 426.843 96.9121 423.819 96.9121C420.795 96.9121 418.344 99.2819 418.344 102.205C418.344 105.128 420.795 107.498 423.819 107.498Z" fill="#0E254A"/>
<path d="M426.59 102.205C426.59 103.661 425.337 104.852 423.82 104.852C422.302 104.852 421.049 103.661 421.049 102.205C421.049 100.75 422.302 99.5586 423.82 99.5586C425.337 99.5586 426.59 100.75 426.59 102.205Z" fill="#323966"/>
<path d="M469.272 212.036H412.472C412.472 205.817 417.551 200.722 423.753 200.722H457.991C464.192 200.722 469.272 205.817 469.272 212.036Z" fill="#FFAC3D"/>
<path d="M434.374 197.943H424.148V201.053H434.374V197.943Z" fill="#0E254A"/>
<path d="M468.678 139.786C472.941 139.786 476.397 136.468 476.397 132.376C476.397 128.283 472.941 124.965 468.678 124.965C464.416 124.965 460.96 128.283 460.96 132.376C460.96 136.468 464.416 139.786 468.678 139.786Z" fill="#0E254A"/>
<path d="M468.679 136.081C470.792 136.081 472.505 134.422 472.505 132.376C472.505 130.329 470.792 128.67 468.679 128.67C466.566 128.67 464.853 130.329 464.853 132.376C464.853 134.422 466.566 136.081 468.679 136.081Z" fill="#323966"/>
<path d="M501.532 195.495H449.415V177.433H501.532C503.709 177.433 505.49 179.219 505.49 181.402V191.459C505.49 193.709 503.709 195.495 501.532 195.495Z" fill="#5E1F3F"/>
<path d="M482.533 195.495H430.416V177.433H482.533C484.71 177.433 486.491 179.219 486.491 181.402V191.459C486.557 193.709 484.71 195.495 482.533 195.495Z" fill="#5E1F3F"/>
<path d="M479.96 193.047H430.416V179.285H479.96C481.873 179.285 483.39 180.807 483.39 182.726V189.673C483.39 191.459 481.873 193.047 479.96 193.047Z" fill="#E8EAEC"/>
<path d="M502.324 184.578H490.449V185.901H502.324V184.578Z" fill="white"/>
<path d="M502.324 187.357H490.449V188.68H502.324V187.357Z" fill="white"/>
<path d="M509.976 163.472H457.859V145.41H509.976C512.153 145.41 513.934 147.196 513.934 149.379V159.436C513.934 161.686 512.153 163.472 509.976 163.472Z" fill="#5E1F3F"/>
<path d="M490.977 163.472H438.86V145.41H490.977C493.154 145.41 494.935 147.196 494.935 149.379V159.436C495.001 161.686 493.22 163.472 490.977 163.472Z" fill="#5E1F3F"/>
<path d="M489.064 161.686H438.86V147.262H489.064C490.977 147.262 492.494 148.784 492.494 150.703V158.311C492.494 160.164 490.977 161.686 489.064 161.686Z" fill="#E8EAEC"/>
<path d="M512.021 151.166H497.508V157.584H512.021V151.166Z" fill="#E8EAEC"/>
<path d="M510.768 152.555H498.894V153.878H510.768V152.555Z" fill="#0E254A"/>
<path d="M510.768 154.672H498.894V155.996H510.768V154.672Z" fill="#0E254A"/>
<path d="M505.292 212.631H453.176V194.569H505.292C507.469 194.569 509.251 196.355 509.251 198.539V208.595C509.317 210.845 507.535 212.631 505.292 212.631Z" fill="#0E254A"/>
<path d="M486.359 212.631H434.242V194.569H486.359C488.536 194.569 490.317 196.355 490.317 198.539V208.595C490.317 210.845 488.536 212.631 486.359 212.631Z" fill="#0E254A"/>
<path d="M483.786 210.117H434.242V197.017H483.786C485.699 197.017 487.216 198.539 487.216 200.458V206.743C487.15 208.596 485.633 210.117 483.786 210.117Z" fill="#E8EAEC"/>
<path d="M507.338 200.259H492.824V206.677H507.338V200.259Z" fill="#E8EAEC"/>
<path d="M506.084 201.714H494.209V203.038H506.084V201.714Z" fill="#0E254A"/>
<path d="M506.084 203.832H494.209V205.155H506.084V203.832Z" fill="#0E254A"/>
<path d="M442.621 163.406V177.499H502.522C506.414 177.499 509.515 174.323 509.515 170.486C509.515 168.567 508.723 166.781 507.47 165.523C506.216 164.266 504.435 163.472 502.522 163.472H442.621V163.406Z" fill="#D04234"/>
<path d="M435.628 163.406V177.499H486.029C489.921 177.499 493.022 174.323 493.022 170.486C493.022 168.567 492.23 166.781 490.977 165.523C489.724 164.266 487.942 163.472 486.029 163.472H435.628V163.406Z" fill="#FA7C50"/>
<path d="M435.628 165.788V174.786H484.116C486.623 174.786 488.602 172.801 488.602 170.287C488.602 169.03 488.074 167.905 487.283 167.111C486.491 166.317 485.37 165.788 484.116 165.788H435.628Z" fill="#E8EAEC"/>
<path d="M438.86 149.379H490.779" stroke="#968EAB" stroke-width="1.4382" stroke-miterlimit="10"/>
<path d="M438.86 152.357H490.779" stroke="#968EAB" stroke-width="1.4382" stroke-miterlimit="10"/>
<path d="M438.86 155.4H490.779" stroke="#968EAB" stroke-width="1.4382" stroke-miterlimit="10"/>
<path d="M438.86 158.377H490.779" stroke="#968EAB" stroke-width="1.4382" stroke-miterlimit="10"/>
<path d="M430.416 181.866H482.599" stroke="#968EAB" stroke-width="1.4382" stroke-miterlimit="10"/>
<path d="M430.416 184.843H482.599" stroke="#968EAB" stroke-width="1.4382" stroke-miterlimit="10"/>
<path d="M430.416 187.887H482.599" stroke="#968EAB" stroke-width="1.4382" stroke-miterlimit="10"/>
<path d="M430.416 190.93H482.599" stroke="#968EAB" stroke-width="1.4382" stroke-miterlimit="10"/>
<path d="M434.374 199.134H486.557" stroke="#968EAB" stroke-width="1.4382" stroke-miterlimit="10"/>
<path d="M434.374 202.178H486.557" stroke="#968EAB" stroke-width="1.4382" stroke-miterlimit="10"/>
<path d="M434.374 204.494H486.557" stroke="#968EAB" stroke-width="1.4382" stroke-miterlimit="10"/>
<path d="M434.374 207.537H486.557" stroke="#968EAB" stroke-width="1.4382" stroke-miterlimit="10"/>
<path d="M155.848 227.055H140.675V392H155.848V227.055Z" fill="#122F51"/>
<path d="M298.806 274.957L208.163 281.772L183.028 153.813L243.919 153.614C260.939 153.548 275.717 165.523 279.279 182.263L298.806 274.957Z" fill="#8E534B"/>
<path d="M189.757 275.751L174.716 163.737C174.056 158.775 177.552 154.143 182.566 153.416C187.514 152.754 192.132 156.261 192.857 161.289L207.899 273.303C208.558 278.266 205.062 282.897 200.048 283.625C195.1 284.286 190.483 280.78 189.757 275.751Z" fill="#FF7C71"/>
<path d="M252.033 291.101H241.412V353.89H252.033V291.101Z" fill="#4E567A"/>
<path d="M252.033 294.74V308.965L241.412 304.863V295.27C244.051 295.071 249.197 294.873 252.033 294.74Z" fill="#0E254A"/>
<path d="M271.297 296.196H223.864C221.225 296.196 219.114 294.079 219.114 291.432C219.114 288.786 221.225 286.668 223.864 286.668H271.297C273.936 286.668 276.047 288.786 276.047 291.432C276.047 294.013 273.936 296.196 271.297 296.196Z" fill="#283154"/>
<path d="M294.518 290.506H239.961C233.43 290.506 228.086 285.147 228.086 278.596C228.086 272.046 233.43 266.687 239.961 266.687H294.518C301.049 266.687 306.393 272.046 306.393 278.596C306.393 285.147 301.049 290.506 294.518 290.506Z" fill="#8E534B"/>
<path d="M246.624 290.77H203.017C196.486 290.77 191.143 285.411 191.143 278.861C191.143 272.311 196.486 266.952 203.017 266.952H246.624C253.155 266.952 258.498 272.311 258.498 278.861C258.498 285.411 253.155 290.77 246.624 290.77Z" fill="#FF7C71"/>
<path d="M291.682 374.864H285.019C285.019 366.924 278.554 360.44 270.637 360.44H222.281C214.364 360.44 207.899 366.924 207.899 374.864H201.236C201.236 363.219 210.67 353.758 222.281 353.758H270.703C282.248 353.758 291.682 363.219 291.682 374.864Z" fill="#0E254A"/>
<path d="M254.408 343.767H238.905V353.89H254.408V343.767Z" fill="#0E254A"/>
<path d="M209.698 382.572C210.401 379.585 208.557 376.591 205.579 375.886C202.6 375.181 199.615 377.03 198.912 380.017C198.209 383.005 200.053 385.998 203.032 386.703C206.01 387.409 208.995 385.559 209.698 382.572Z" fill="#0E254A"/>
<path d="M212.253 380.819H197.146V379.165C197.146 375.129 200.378 371.887 204.402 371.887H204.996C209.02 371.887 212.253 375.129 212.253 379.165V380.819Z" fill="#323966"/>
<path d="M294.079 382.577C294.782 379.59 292.938 376.596 289.959 375.891C286.981 375.185 283.996 377.035 283.293 380.022C282.59 383.01 284.434 386.003 287.413 386.708C290.391 387.414 293.376 385.564 294.079 382.577Z" fill="#0E254A"/>
<path d="M296.629 380.819H281.521V379.165C281.521 375.129 284.754 371.887 288.778 371.887H289.372C293.396 371.887 296.629 375.129 296.629 379.165V380.819Z" fill="#323966"/>
<path d="M251.307 355.809H242.533V375.79H251.307V355.809Z" fill="#0E254A"/>
<path d="M252.516 382.574C253.22 379.587 251.375 376.594 248.397 375.888C245.418 375.183 242.434 377.033 241.73 380.02C241.027 383.007 242.872 386.001 245.85 386.706C248.829 387.411 251.813 385.561 252.516 382.574Z" fill="#0E254A"/>
<path d="M255.068 380.819H239.961V379.165C239.961 375.129 243.193 371.887 247.218 371.887H247.811C251.836 371.887 255.068 375.129 255.068 379.165V380.819Z" fill="#323966"/>
<path d="M358.905 188.68L373.946 192.981C375.067 193.312 376.189 192.65 376.519 191.525C376.849 190.401 376.189 189.276 375.067 188.945L360.026 184.644C358.905 184.314 357.783 184.975 357.453 186.1C357.123 187.225 357.783 188.35 358.905 188.68Z" fill="#FFA280"/>
<path d="M363.061 193.643L375.133 197.149C376.255 197.48 377.376 196.819 377.706 195.694C378.036 194.569 377.376 193.444 376.255 193.113L364.182 189.607C363.061 189.276 361.939 189.938 361.61 191.062C361.28 192.187 361.939 193.378 363.061 193.643Z" fill="#FFA280"/>
<path d="M359.63 196.488L373.946 200.59C375.067 200.92 376.189 200.259 376.519 199.134C376.848 198.009 376.189 196.884 375.067 196.554L360.752 192.452C359.63 192.121 358.509 192.782 358.179 193.907C357.849 195.032 358.509 196.157 359.63 196.488Z" fill="#FFA280"/>
<path d="M347.69 197.546L363.061 200.59C364.182 200.788 365.304 200.061 365.502 198.936C365.699 197.811 364.974 196.686 363.852 196.488L348.481 193.444C347.36 193.246 346.238 193.974 346.04 195.098C345.842 196.223 346.568 197.348 347.69 197.546Z" fill="#FFA280"/>
<path d="M370.318 192.385C370.186 192.319 368.471 191.525 366.623 190.599C363.457 189.011 359.894 188.283 356.398 188.349L349.603 188.482C349.603 188.482 348.284 199.796 348.746 199.663C349.207 199.531 363.721 202.177 363.721 202.177L370.318 192.385Z" fill="#FFA280"/>
<path d="M351.911 187.357H345.446V204.758H351.911V187.357Z" fill="#E8EAEC"/>
<path d="M312.527 374.864L352.043 373.408C354.418 373.342 356.265 371.357 356.133 368.975C356.067 367.189 354.88 365.601 353.099 365.071L333.307 358.984L311.999 360.308L312.527 374.864Z" fill="#968EAB"/>
<path d="M352.901 374.467L312.923 376.253L312.791 373.408L355.606 371.489C355.672 373.077 354.484 374.4 352.901 374.467Z" fill="#0E254A"/>
<path d="M333.11 364.741L337.53 359.58" stroke="#0E254A" stroke-width="1.4382" stroke-miterlimit="10" stroke-linecap="round"/>
<path d="M336.606 366.064L340.96 360.837" stroke="#0E254A" stroke-width="1.4382" stroke-miterlimit="10" stroke-linecap="round"/>
<path d="M339.905 367.784L344.853 361.962" stroke="#0E254A" stroke-width="1.4382" stroke-miterlimit="10" stroke-linecap="round"/>
<mask id="mask0_8029_96081" style="mask-type:luminance" maskUnits="userSpaceOnUse" x="269" y="232" width="68" height="129">
<path d="M310.416 360.837C312.725 322.198 312.065 286.47 309.097 279.192C305.996 274.693 287.524 263.644 269.316 255.439L279.542 232.547C292.34 238.303 322.884 253.124 330.801 266.621C334.099 272.311 337.332 283.493 335.749 322.926C334.957 343.569 333.901 359.779 333.901 359.779L310.416 360.837Z" fill="white"/>
</mask>
<g mask="url(#mask0_8029_96081)">
<path d="M310.416 360.837C312.725 322.198 312.065 286.47 309.097 279.192C305.996 274.693 287.524 263.644 269.316 255.439L279.542 232.547C292.34 238.303 322.884 253.124 330.801 266.621C334.099 272.311 337.332 283.493 335.749 322.926C334.957 343.569 333.901 359.779 333.901 359.779L310.416 360.837Z" fill="#0E254A"/>
</g>
<mask id="mask1_8029_96081" style="mask-type:luminance" maskUnits="userSpaceOnUse" x="269" y="232" width="68" height="129">
<path d="M310.416 360.837C312.725 322.198 312.065 286.47 309.097 279.192C305.996 274.693 287.524 263.644 269.316 255.439L279.542 232.547C292.34 238.303 322.884 253.124 330.801 266.621C334.099 272.311 337.332 283.493 335.749 322.926C334.957 343.569 333.901 359.779 333.901 359.779L310.416 360.837Z" fill="white"/>
</mask>
<g mask="url(#mask1_8029_96081)">
<path d="M265.952 242.604C265.952 242.604 312.461 259.409 317.805 272.708C323.214 286.007 321.301 360.573 321.301 360.573L305.798 361.234L254.275 240.089L265.952 242.604Z" fill="#0E254A"/>
</g>
<path d="M274.595 132.971L294.518 183.983C298.014 191.591 305.601 196.421 313.979 196.355L348.218 196.024" stroke="#112B54" stroke-width="20" stroke-miterlimit="10"/>
<path d="M256.32 118.018H251.57C247.216 118.018 243.72 114.445 243.72 110.145V87.8475C243.72 83.4808 247.282 79.9741 251.57 79.9741H256.32C260.674 79.9741 264.171 83.5469 264.171 87.8475V110.145C264.171 114.445 260.608 118.018 256.32 118.018Z" fill="#FFBA93"/>
<path d="M296.364 60.1252C296.298 60.6545 296.298 61.1177 296.232 61.647C295.968 64.0288 295.441 66.4107 294.649 68.5941C291.482 78.0555 284.226 85.5981 275.122 89.1709C270.57 90.9573 265.622 91.8174 260.41 91.4204C252.032 90.825 244.775 94.1331 239.234 88.5754C237.453 86.789 235.869 84.8703 234.55 82.6869C234.022 81.8268 233.56 81.0328 233.099 80.1065C230.328 74.7473 228.745 61.7131 229.206 55.2953C230.46 37.2327 245.699 23.4708 263.643 23.8678C264.171 23.8678 264.633 23.9339 265.16 23.9339C276.441 24.7279 286.073 31.0134 291.548 40.0777C293.132 42.7243 294.385 45.6355 295.243 48.679C296.232 52.3841 296.628 56.2216 296.364 60.1252Z" fill="#613241"/>
<path d="M251.967 66.7416C251.901 67.4694 251.769 68.131 251.505 68.7265C251.175 69.4543 250.713 70.2482 250.054 70.7775C248.932 71.77 247.481 72.4316 245.897 72.3654L242.467 72.167L239.828 72.0346L240.224 64.2274L240.29 62.7718L240.356 61.647L240.422 60.5884V60.3237L246.491 60.6545C248.008 60.7207 249.394 61.3823 250.383 62.441C250.977 63.0364 251.439 63.8304 251.703 64.6243C251.901 65.3521 252.033 66.0138 251.967 66.7416Z" fill="#FFC7BE"/>
<path d="M293.594 63.367L292.934 76.0042L292.868 77.9229C292.802 79.18 292.67 80.4371 292.407 81.6281C290.23 92.8097 280.994 101.345 269.647 102.8C269.317 102.866 268.987 102.866 268.591 102.933C267.404 103.065 266.15 103.065 264.897 102.999C263.709 102.933 262.522 102.8 261.335 102.602C259.026 102.205 256.915 101.477 254.869 100.485C246.095 96.3163 239.96 87.5166 239.696 77.4598C239.696 77.129 239.696 76.8643 239.696 76.5335C239.696 76.2027 239.696 75.8057 239.696 75.4749V75.2764L239.762 74.4163L239.894 72.1667L240.29 64.4256V64.3595L240.356 62.9039L240.422 61.7791L240.488 60.7205V60.4558C240.62 58.6694 240.95 56.9492 241.477 55.2951C241.807 54.1042 242.269 52.9794 242.731 51.9208C242.797 51.7223 242.863 51.59 242.929 51.4576C243.325 50.5314 243.786 49.6712 244.314 48.8111C246.227 45.6353 248.8 42.8564 251.835 40.673C252.429 40.2761 253.088 39.8129 253.682 39.4821C258.102 36.9017 263.314 35.4461 268.789 35.777C276.112 36.1739 282.709 39.4821 287.261 44.5105C289.702 47.2232 291.351 50.3329 292.539 53.8395C293 55.1628 293.264 56.5522 293.462 57.9416C293.66 59.6619 293.66 61.5145 293.594 63.367Z" fill="#FFD4B6"/>
<path d="M242.863 64.3594L242.467 72.2328L242.203 77.5259L240.158 77.3935C240.026 77.3935 239.828 77.3935 239.696 77.3274C236.266 76.9304 233.627 73.7546 233.825 70.2479C233.891 68.4615 234.748 66.9397 236.002 65.815C237.123 64.8225 238.641 64.2271 240.29 64.2271C240.488 64.2271 240.62 64.2271 240.818 64.2271L242.863 64.3594Z" fill="#FFC7BE"/>
<path d="M284.028 74.0196C283.369 74.0196 282.841 73.4903 282.841 72.8287V68.9912C282.841 68.3296 283.369 67.8003 284.028 67.8003C284.688 67.8003 285.216 68.3296 285.216 68.9912V72.8287C285.216 73.4242 284.688 74.0196 284.028 74.0196Z" fill="#0E254A"/>
<path d="M266.612 74.0196C265.953 74.0196 265.425 73.4903 265.425 72.8287V68.9912C265.425 68.3296 265.953 67.8003 266.612 67.8003C267.272 67.8003 267.8 68.3296 267.8 68.9912V72.8287C267.8 73.4242 267.272 74.0196 266.612 74.0196Z" fill="#0E254A"/>
<path d="M264.171 102.867C264.171 102.867 259.421 103.198 254.869 100.419C246.095 96.2504 239.96 87.4507 239.696 77.3939C236.266 76.9969 233.627 73.8211 233.825 70.3144C233.891 68.528 234.748 67.0062 236.002 65.8815C237.123 64.889 238.641 64.2936 240.29 64.2936L240.356 62.838L240.422 61.7132L240.488 60.6546V60.3899C240.62 58.6035 240.95 56.8833 241.477 55.2292C245.04 53.2443 248.734 52.8473 250.779 57.3464C250.779 57.3464 250.581 59.3975 250.383 62.5071C250.252 64.8229 250.12 67.734 250.12 70.8437C250.054 77.1954 250.449 84.341 252.099 88.6416C255.463 97.7722 264.171 102.867 264.171 102.867Z" fill="#FFBA93"/>
<path d="M294.649 45.0402H251.9C249.063 45.0402 246.82 42.7245 246.82 39.9456C246.82 37.1006 249.129 34.8511 251.9 34.8511H294.649C297.486 34.8511 299.728 37.1668 299.728 39.9456C299.728 42.7907 297.42 45.0402 294.649 45.0402Z" fill="#613241"/>
<path d="M303.951 49.2083C304.347 51.5241 303.556 53.7074 302.104 55.163C300.917 56.354 299.201 57.1479 297.354 57.1479H258.366C252.758 57.1479 248.206 61.7132 248.206 67.3371V73.6887C248.206 75.806 246.491 77.5262 244.38 77.5262H243.457C241.346 77.5262 239.63 75.806 239.63 73.6887V54.6337C239.63 54.5014 239.63 54.3691 239.63 54.1706C238.905 53.112 238.509 51.7887 238.509 50.4654C238.509 48.6129 239.3 46.9588 240.488 45.7017C241.675 44.5108 243.391 43.7168 245.238 43.7168H297.024C300.323 43.7168 303.358 45.9663 303.951 49.2083Z" fill="#613241"/>
<path d="M290.691 64.2935H282.313C281.456 64.2935 280.796 63.6319 280.796 62.7718C280.796 61.9116 281.456 61.25 282.313 61.25H290.691C291.549 61.25 292.209 61.9116 292.209 62.7718C292.209 63.6319 291.483 64.2935 290.691 64.2935Z" fill="#65354D"/>
<path d="M270.306 64.2935H261.862C261.004 64.2935 260.345 63.6319 260.345 62.7718C260.345 61.9116 261.004 61.25 261.862 61.25H270.24C271.098 61.25 271.758 61.9116 271.758 62.7718C271.758 63.6319 271.098 64.2935 270.306 64.2935Z" fill="#65354D"/>
<g opacity="0.49">
<path d="M267.338 67.3369L271.296 75.078L274.331 74.7472L270.175 67.3369H267.338Z" fill="white"/>
<path d="M285.876 67.3369L289.834 75.078L292.803 74.7472L288.713 67.3369H285.876Z" fill="white"/>
</g>
<path d="M290.823 75.5414H281.917C280.927 75.5414 280.136 74.7474 280.136 73.755V68.7928C280.136 67.8003 280.927 67.0063 281.917 67.0063H290.823C291.812 67.0063 292.604 67.8003 292.604 68.7928V73.755C292.604 74.7474 291.812 75.5414 290.823 75.5414Z" stroke="#0E254A" stroke-width="1.2974" stroke-miterlimit="10"/>
<path d="M273.341 75.5412H263.511C262.456 75.5412 261.664 74.681 261.664 73.6886V68.9248C261.664 67.8662 262.522 67.0723 263.511 67.0723H273.341C274.396 67.0723 275.188 67.9324 275.188 68.9248V73.6224C275.254 74.681 274.396 75.5412 273.341 75.5412Z" stroke="#0E254A" stroke-width="1.349" stroke-miterlimit="10"/>
<path d="M280.268 85.7305C278.882 87.1861 276.705 88.0462 274.264 87.9139C272.285 87.7815 270.438 87.0537 269.185 85.8628" stroke="#FA7C50" stroke-width="1.4382" stroke-miterlimit="10"/>
<path d="M280.862 78.9157C280.862 78.9818 280.73 78.9157 280.73 78.9157C280.664 80.2389 279.542 81.3637 276.639 81.2314L276.31 70.5791C279.344 74.4827 280.664 76.6661 280.862 78.9157Z" fill="#FFA280"/>
<path d="M275.386 71.3066L280.465 71.439" stroke="#0E254A" stroke-width="1.349" stroke-miterlimit="10"/>
<path d="M287.393 143.226V239.361L217.662 247.036L214.231 143.226C214.231 127.744 225.38 114.908 240.092 112.328C241.873 111.997 243.654 111.865 245.501 111.865H256.057C273.341 111.865 287.393 125.958 287.393 143.226Z" fill="#274972"/>
<path d="M281.851 247.83C281.851 252.131 280.334 256.101 277.761 259.211C274.529 263.18 269.515 265.695 263.974 265.695H233.957C233.033 265.695 232.176 265.628 231.318 265.496C229.141 265.165 227.03 264.437 225.183 263.379C224.853 263.18 224.523 262.982 224.193 262.783C219.312 259.608 216.079 254.05 216.079 247.764L216.607 238.237L281.192 237.708L281.851 247.83Z" fill="#0E254A"/>
<path d="M268.5 112H244.5V223H268.5V112Z" fill="#A1B0F8"/>
<path d="M257.533 125L250.5 115.652L256.941 112L264.5 115.652L257.533 125Z" fill="#0E254A"/>
<path d="M259.685 225.467L251.835 214.815L255.002 120.069L259.883 120.532L267.008 214.484L259.685 225.467Z" fill="#0E254A"/>
<path d="M268.855 121.275L257.574 113.534L244.38 121.275L243.391 111.748H268.855V121.275Z" fill="#CFD7FE"/>
<path d="M263.247 368.049L300.19 382.075C302.367 382.936 304.874 381.811 305.666 379.561C306.326 377.841 305.798 375.922 304.413 374.797L288.514 361.433L268.327 354.353L263.247 368.049Z" fill="#968EAB"/>
<path d="M300.521 383.465L262.983 369.504L263.973 366.792L304.149 381.744C303.687 383.2 302.038 383.994 300.521 383.465Z" fill="#0E254A"/>
<path d="M293.66 321.669C293.132 342.113 291.351 360.837 291.285 361.631L278.025 360.308L266.348 359.183C269.713 324.315 269.581 289.183 266.085 281.706C261.994 277.869 246.161 270.855 231.384 265.562C229.339 264.835 227.228 264.107 225.249 263.445C224.919 263.313 224.523 263.18 224.193 263.114L224.259 262.85C224.259 262.85 236.464 241.347 262.258 248.757C267.668 250.345 272.154 255.505 277.761 259.277C280.664 261.196 283.171 263.247 284.952 265.231C290.098 270.855 294.716 281.64 293.66 321.669Z" fill="#274972"/>
<path d="M284.819 365.469L291.021 362.624" stroke="#0E254A" stroke-width="1.4382" stroke-miterlimit="10" stroke-linecap="round"/>
<path d="M287.458 368.115L293.593 365.27" stroke="#0E254A" stroke-width="1.4382" stroke-miterlimit="10" stroke-linecap="round"/>
<path d="M289.701 371.093L296.694 367.851" stroke="#0E254A" stroke-width="1.4382" stroke-miterlimit="10" stroke-linecap="round"/>
<path d="M241.28 155.334L214.298 144.219V143.226C214.298 127.744 225.447 114.908 240.158 112.328C240.224 112.394 240.29 112.46 240.356 112.527L241.28 155.334Z" fill="#274972"/>
<path d="M278.025 360.308L266.348 359.183C269.712 324.315 269.58 289.182 266.084 281.706C261.994 277.868 246.161 270.855 231.384 265.562C229.207 265.231 227.096 264.503 225.248 263.445C224.919 263.312 224.523 263.18 224.193 263.114L224.259 262.849C219.377 259.673 216.145 254.116 216.145 247.83L216.672 238.303L226.964 239.692C226.7 240.42 225.314 247.698 227.887 252.131C228.613 253.388 229.602 254.38 231.12 254.976C235.144 256.498 250.515 260.269 262.72 265.76C270.636 269.333 277.233 273.568 278.552 278.464C281.785 289.844 278.552 350.979 278.025 360.308Z" fill="#0E254A"/>
<path d="M414.122 211.242H351.978C347.888 211.242 345.249 207.008 346.964 203.302L368.602 156.922C370.515 152.886 374.54 150.306 378.96 150.306H436.156C439.125 150.306 441.104 153.415 439.85 156.062L414.122 211.242Z" fill="#AFAAC4"/>
<path d="M352.242 211.441H307.976C306.195 211.441 304.743 209.985 304.743 208.199C304.743 206.412 306.195 204.957 307.976 204.957H352.242C354.023 204.957 355.474 206.412 355.474 208.199C355.474 209.919 354.023 211.441 352.242 211.441Z" fill="#AFAAC4"/>
<path d="M336.276 207.074H329.943V208.992H336.276V207.074Z" fill="#0E254A"/>
<path d="M328.096 207.074H323.479V208.992H328.096V207.074Z" fill="#0E254A"/>
<path d="M413.198 211.242H350.922C348.679 211.242 347.228 208.927 348.151 206.875L371.505 156.988C373.418 152.952 377.442 150.372 381.862 150.372H439.059C442.027 150.372 444.006 153.482 442.753 156.128L418.608 207.802C417.552 209.919 415.441 211.242 413.198 211.242Z" fill="#827C91"/>
<path d="M399.542 184.38C398.091 187.82 395.32 190.004 393.407 189.144C391.494 188.35 391.098 184.843 392.615 181.403C394.067 177.962 396.837 175.779 398.751 176.639C400.664 177.433 401.06 180.873 399.542 184.38Z" fill="white"/>
<path d="M302.434 196.885L317.871 194.437C318.992 194.238 319.784 193.18 319.586 192.055C319.388 190.93 318.332 190.136 317.211 190.335L301.774 192.783C300.652 192.981 299.861 194.04 300.059 195.165C300.257 196.289 301.312 197.017 302.434 196.885Z" fill="#FFA280"/>
<path d="M307.382 201.053L319.784 199.068C320.906 198.87 321.697 197.811 321.5 196.686C321.302 195.561 320.246 194.768 319.125 194.966L306.722 196.951C305.601 197.149 304.809 198.208 305.007 199.333C305.139 200.458 306.26 201.252 307.382 201.053Z" fill="#FFA280"/>
<path d="M304.479 206.478L319.19 204.096C320.311 203.898 321.103 202.839 320.905 201.715C320.707 200.59 319.652 199.796 318.53 199.994L303.819 202.376C302.697 202.575 301.906 203.633 302.104 204.758C302.302 205.883 303.357 206.677 304.479 206.478Z" fill="#FFA280"/>
<path d="M309.097 192.849C308.899 192.849 307.052 192.849 305.007 192.783C301.444 192.716 297.948 193.51 294.781 195.098L288.712 198.076C288.712 198.076 292.208 208.463 292.67 208.529C304.413 210.647 308.437 205.287 308.437 205.287L309.097 192.849Z" fill="#FFA280"/>
<path d="M299.993 192.849H294.781V209.853H299.993V192.849Z" fill="#E8EAEC"/>
<path d="M260.609 211.705C248.272 211.705 237.057 204.493 231.911 193.312L231.648 192.782L215.551 143.491L235.408 137.007L251.109 185.041C252.956 188.614 256.716 190.93 260.74 190.864L294.979 190.533L295.177 211.44L260.938 211.771C260.806 211.705 260.74 211.705 260.609 211.705Z" fill="#274972"/>
<path d="M266.678 232.414H249.262V238.435H266.678V232.414Z" fill="#968EAB"/>
<path d="M229.867 227.055H214.693V392H229.867V227.055Z" fill="#5C6BB2"/>
<path d="M424.083 227.055H408.91V392H424.083V227.055Z" fill="#5C6BB2"/>
<path d="M498.035 227.055H482.862V392H498.035V227.055Z" fill="#5C6BB2"/>
<path d="M408.91 227.055H424.083V281.441L408.91 288.984V227.055Z" fill="#323966"/>
<path d="M498.101 227.055V244.588L482.862 252.131V227.055H498.101Z" fill="#323966"/>
<path d="M229.998 226.724V244.522L214.627 252.131V226.724H229.998Z" fill="#323966"/>
<path d="M126.425 231.951H467.162V218.123C467.162 214.418 464.193 211.44 460.498 211.44H133.088C129.393 211.44 126.425 214.418 126.425 218.123V231.951Z" fill="#5C6BB3"/>
<path d="M250.713 196.157H176.299V212.036H250.713V196.157Z" fill="#C4C4C9"/>
<path d="M250.911 195.958H216.475V212.168H250.911V195.958Z" fill="#E8EAEC"/>
<path d="M176.365 199.068H250.846" stroke="#968EAB" stroke-width="1.7691" stroke-miterlimit="10"/>
<path d="M176.365 202.244H250.846" stroke="#968EAB" stroke-width="1.7691" stroke-miterlimit="10"/>
<path d="M176.365 205.486H250.846" stroke="#968EAB" stroke-width="1.7691" stroke-miterlimit="10"/>
<path d="M176.365 208.662H250.846" stroke="#968EAB" stroke-width="1.7691" stroke-miterlimit="10"/>
<path d="M157.497 257.688H53V391.934H157.497V257.688Z" fill="#E9CCA2"/>
<path d="M202.95 257.688H91.8564V391.934H202.95V257.688Z" fill="#E9CCA2"/>
<path d="M196.42 267.547H98.9814V303.077H196.42V267.547Z" fill="#827C91"/>
<path d="M196.42 309.229H98.9814V344.759H196.42V309.229Z" fill="#827C91"/>
<path d="M196.42 350.913H98.9814V386.442H196.42V350.913Z" fill="#827C91"/>
<path d="M164.688 287.197H140.345C139.289 287.197 138.432 286.337 138.432 285.279C138.432 284.22 139.289 283.36 140.345 283.36H164.688C165.743 283.36 166.601 284.22 166.601 285.279C166.601 286.337 165.743 287.197 164.688 287.197Z" fill="white"/>
<path d="M165.677 328.615H141.334C140.279 328.615 139.421 327.755 139.421 326.697C139.421 325.638 140.279 324.778 141.334 324.778H165.677C166.733 324.778 167.59 325.638 167.59 326.697C167.59 327.755 166.733 328.615 165.677 328.615Z" fill="white"/>
<path d="M165.677 369.967H141.334C140.279 369.967 139.421 369.107 139.421 368.049C139.421 366.99 140.279 366.13 141.334 366.13H165.677C166.733 366.13 167.59 366.99 167.59 368.049C167.59 369.107 166.733 369.967 165.677 369.967Z" fill="white"/>
<path d="M291.087 189.408V212.764H271.626V189.408C271.626 188.35 272.484 187.556 273.473 187.556H289.174C290.23 187.556 291.087 188.35 291.087 189.408Z" fill="#FFAC3D"/>
<path d="M271.89 208.794C271.626 208.662 265.688 205.155 265.161 199.002C264.963 196.686 265.82 195.231 266.612 194.371C268.723 192.187 272.285 192.253 272.681 192.32L272.549 195.165C271.824 195.098 269.713 195.297 268.657 196.356C268.129 196.885 267.931 197.679 267.997 198.737C268.393 203.435 273.275 206.28 273.341 206.28L271.89 208.794Z" fill="#F66438"/>
<path d="M286.271 202.443H280.73C278.817 202.443 277.233 200.855 277.233 198.936C277.233 197.017 278.817 195.429 280.73 195.429H286.271C288.184 195.429 289.768 197.017 289.768 198.936C289.768 200.855 288.184 202.443 286.271 202.443Z" fill="#D04234"/>
<path d="M281.983 212.764H271.626V189.408C271.626 188.35 272.484 187.556 273.473 187.556H274.067C274.067 188.747 274.397 198.076 277.036 204.824C279.345 210.647 281.39 212.367 281.983 212.764Z" fill="#F66438"/>
<path d="M434.374 199.134H486.557" stroke="#968EAB" stroke-width="1.4382" stroke-miterlimit="10"/>
<path d="M434.374 202.178H486.557" stroke="#968EAB" stroke-width="1.4382" stroke-miterlimit="10"/>
<path d="M434.374 204.494H486.557" stroke="#968EAB" stroke-width="1.4382" stroke-miterlimit="10"/>
<path d="M434.374 207.537H486.557" stroke="#968EAB" stroke-width="1.4382" stroke-miterlimit="10"/>
<path d="M209.151 196.422L221.62 169.493L233.956 196.091L209.151 196.422Z" fill="white"/>
<path d="M221.62 169.625H199.19V195.628H221.62V169.625Z" fill="white"/>
<path d="M187.646 196.422L199.058 169.758L211.395 196.422H187.646Z" fill="#5E527B"/>
<path d="M219.575 172.934H208.36V174.058H219.575V172.934Z" fill="#968EAB"/>
<path d="M220.499 175.183H209.284V176.308H220.499V175.183Z" fill="#968EAB"/>
<path d="M215.551 193.113L209.548 178.888L222.676 178.954L229.141 192.782L215.551 193.113ZM210.933 179.814L216.145 192.121L227.558 191.856L222.016 179.881L210.933 179.814Z" fill="#968EAB"/>
<path d="M211.659 181.866H223.666" stroke="#968EAB" stroke-width="1.4611" stroke-miterlimit="10"/>
<path d="M212.715 184.446H224.655" stroke="#968EAB" stroke-width="1.4611" stroke-miterlimit="10"/>
<path d="M213.572 187.093H225.513" stroke="#968EAB" stroke-width="1.4611" stroke-miterlimit="10"/>
<path d="M214.958 189.673H226.965" stroke="#968EAB" stroke-width="1.4611" stroke-miterlimit="10"/>
<path d="M220.037 179.683L225.645 192.121" stroke="#968EAB" stroke-width="1.4611" stroke-miterlimit="10"/>
<path d="M216.738 179.749L222.346 192.187" stroke="#968EAB" stroke-width="1.4611" stroke-miterlimit="10"/>
<path d="M213.506 179.484L218.981 192.386" stroke="#968EAB" stroke-width="1.4611" stroke-miterlimit="10"/>
<path d="M494.954 150.666L491.836 150.112L484.224 193.242L487.342 193.796L494.954 150.666Z" fill="#4257A4"/>
<path d="M496.044 149.718L491.237 148.865L488.949 161.83L493.756 162.683L496.044 149.718Z" fill="#4257A4"/>
<path d="M482.136 199.267L478.97 199.002L482.664 155.4L484.577 152.622L485.765 155.665L482.136 199.267Z" fill="#65354D"/>
<path d="M477.783 201.516L474.682 202.112L466.304 159.172L467.425 155.93L469.404 158.51L477.783 201.516Z" fill="#122F51"/>
<path d="M484.776 211.507H471.252L466.766 175.58H489.196L484.776 211.507Z" fill="#F66438"/>
<path d="M489.856 211.507H476.332L474.353 175.58H494.276L489.856 211.507Z" fill="#FFAC3D"/>
<path d="M157.695 240.089V257.821H102.808C98.9815 257.821 95.683 255.373 94.4955 251.933C94.1657 251.006 93.9678 250.014 93.9678 248.955C93.9678 246.507 94.9573 244.324 96.5406 242.67C98.1239 241.082 100.367 240.089 102.808 240.089H157.695Z" fill="#4257A4"/>
<path d="M137.046 251.933V257.821H102.807C98.9811 257.821 95.6826 255.373 94.4951 251.933H137.046Z" fill="#31477D"/>
<path d="M178.475 240.089V257.821H123.588C118.706 257.821 114.748 253.851 114.748 248.955C114.748 246.507 115.738 244.324 117.321 242.67C118.904 241.082 121.147 240.089 123.588 240.089H178.475Z" fill="#0E254A"/>
<path d="M178.476 243.133V254.513H125.963C122.863 254.513 120.29 251.999 120.29 248.823C120.29 247.235 120.95 245.846 121.939 244.787C122.995 243.794 124.38 243.133 125.963 243.133H178.476Z" fill="#E8EAEC"/>
<path d="M158.883 204.824V222.556H103.995C99.1135 222.556 95.1553 218.586 95.1553 213.69C95.1553 211.242 96.1448 209.059 97.7281 207.405C99.3114 205.817 101.554 204.824 103.995 204.824H158.883Z" fill="#FFAC3D"/>
<path d="M138.036 210.713V204.824H103.863C100.037 204.824 96.7382 207.272 95.5508 210.713H138.036Z" fill="#FFD533"/>
<path d="M178.475 204.824V222.556H123.588C118.706 222.556 114.748 218.586 114.748 213.69C114.748 211.242 115.738 209.059 117.321 207.405C118.904 205.817 121.147 204.824 123.588 204.824H178.475Z" fill="#FA7C50"/>
<path d="M178.476 207.868V219.248H125.963C122.863 219.248 120.29 216.734 120.29 213.558C120.29 211.97 120.95 210.58 121.939 209.522C122.995 208.529 124.38 207.868 125.963 207.868H178.476Z" fill="#E8EAEC"/>
<path d="M162.115 222.688V240.42H107.228C102.346 240.42 98.3877 236.45 98.3877 231.554C98.3877 230.033 98.7835 228.643 99.4432 227.386C99.839 226.592 100.367 225.93 101.027 225.269C102.61 223.681 104.853 222.688 107.294 222.688H162.115Z" fill="#A1CF3A"/>
<path d="M153.605 222.688V227.386H99.377C99.7728 226.592 100.301 225.93 100.96 225.269C102.544 223.681 104.787 222.688 107.227 222.688H153.605Z" fill="#709D2B"/>
<path d="M153.605 240.42V235.723H99.377C99.7728 236.517 100.301 237.178 100.96 237.84C102.544 239.428 104.787 240.42 107.227 240.42H153.605Z" fill="#709D2B"/>
<path d="M189.229 222.688V240.42H134.342C129.46 240.42 125.502 236.45 125.502 231.554C125.502 229.106 126.492 226.923 128.075 225.269C129.658 223.681 131.901 222.688 134.342 222.688H189.229Z" fill="#4E8530"/>
<path d="M189.229 225.666V237.046H136.716C133.616 237.046 131.043 234.532 131.043 231.356C131.043 229.768 131.703 228.379 132.692 227.32C133.748 226.328 135.133 225.666 136.716 225.666H189.229Z" fill="#E8EAEC"/>
<path d="M104.918 210.977C97.5953 221.034 82.8179 222.688 82.8179 222.688C82.8179 222.688 79.9812 208.066 87.3039 198.076C94.6266 188.019 109.404 186.365 109.404 186.365C109.404 186.365 112.241 200.921 104.918 210.977Z" fill="#3C7341"/>
<path d="M74.11 204.957C80.839 211.639 80.4431 222.953 80.4431 222.953C80.4431 222.953 69.1622 223.482 62.4332 216.8C55.7043 210.117 56.1001 198.803 56.1001 198.803C56.1001 198.803 67.381 198.34 74.11 204.957Z" fill="#3C7341"/>
<path d="M90.7344 199.928C92.1197 212.301 82.3561 223.548 82.3561 223.548C82.3561 223.548 70.4155 214.749 69.0301 202.376C67.6448 190.004 77.4084 178.756 77.4084 178.756C77.4084 178.756 89.415 187.556 90.7344 199.928Z" fill="#63B259"/>
<path d="M89.8771 257.688H64.2806L55.9023 220.306H98.2553L89.8771 257.688Z" fill="#65354D"/>
<path d="M99.5091 257.688H73.9126L70.1523 220.306H107.887L99.5091 257.688Z" fill="#A0533B"/>
<path d="M201.697 231.951H523.5V218.123C523.5 214.418 520.532 211.44 516.837 211.44H208.36C204.666 211.44 201.697 214.418 201.697 218.123V231.951Z" fill="#8A9BEC"/>
<path d="M117.654 132.816C128.36 122.113 128.36 104.759 117.654 94.056C106.948 83.3527 89.5907 83.3527 78.8848 94.056C68.1789 104.759 68.1789 122.113 78.8848 132.816C89.5907 143.519 106.948 143.519 117.654 132.816Z" fill="#FFCDB3"/>
<path d="M112.787 133.007C125.62 124.974 129.51 108.061 121.475 95.231C113.44 82.401 96.5228 78.5123 83.6896 86.5455C70.8565 94.5787 66.9669 111.492 75.002 124.322C83.0371 137.152 99.9542 141.04 112.787 133.007Z" fill="#ACAFFF"/>
<path d="M101.81 131.85C113.979 129.891 122.254 118.44 120.295 106.275C118.335 94.1095 106.882 85.8357 94.7136 87.7948C82.5451 89.754 74.2693 101.204 76.229 113.37C78.1886 125.535 89.6417 133.809 101.81 131.85Z" fill="white"/>
<path d="M120.573 109.805C120.573 110.382 120.573 110.959 120.477 111.536C119.611 100.092 109.896 90.9557 98.2568 90.9557C86.5215 90.9557 76.9023 99.9955 76.0366 111.536C76.0366 110.959 75.9404 110.382 75.9404 109.805C75.9404 97.4951 85.9443 87.4937 98.2568 87.4937C110.569 87.4937 120.573 97.5913 120.573 109.805Z" fill="#FFDECB"/>
<path d="M98.2567 112.209C98.0643 112.209 97.872 112.113 97.7758 112.017L86.81 97.3029C86.6176 97.0144 86.7137 96.7259 86.9061 96.5336C87.1947 96.3412 87.4833 96.4374 87.6757 96.6297L98.3529 111.055L110.473 105.766C110.762 105.669 111.05 105.766 111.243 106.054C111.339 106.343 111.242 106.631 110.954 106.823L98.449 112.305C98.3529 112.113 98.3529 112.209 98.2567 112.209Z" fill="#752F00"/>
<path d="M368 75.7798V7.03906H462.71V75.7798C462.71 77.7154 461.203 79.2227 459.266 79.2227H371.444C369.507 79.2227 368 77.7154 368 75.7798Z" fill="white"/>
<path d="M368 75.7798V7.03906H462.71V75.7798C462.71 77.7154 461.203 79.2227 459.266 79.2227H371.444C369.507 79.2227 368 77.7154 368 75.7798Z" stroke="#6E62FF"/>
<path d="M368 75.7798V7.03906H462.71V75.7798C462.71 77.7154 461.203 79.2227 459.266 79.2227H371.444C369.507 79.2227 368 77.7154 368 75.7798Z" stroke="white" stroke-opacity="0.5"/>
<path d="M463.21 4.90428V13.1747H367.596V4.90428C367.596 2.69242 369.423 0.865234 371.636 0.865234H459.266C461.382 0.865234 463.21 2.69242 463.21 4.90428Z" fill="#3B0E09"/>
<path d="M446.761 6.44312C446.761 7.59714 445.799 8.55881 444.645 8.55881C443.49 8.55881 442.528 7.59714 442.528 6.44312C442.528 5.28911 443.49 4.32743 444.645 4.32743C445.799 4.23126 446.761 5.19294 446.761 6.44312Z" fill="#FF7C71"/>
<path d="M453.687 6.44312C453.687 7.59714 452.725 8.55881 451.57 8.55881C450.416 8.55881 449.454 7.59714 449.454 6.44312C449.454 5.28911 450.416 4.32743 451.57 4.32743C452.725 4.23126 453.687 5.19294 453.687 6.44312Z" fill="#EAAB2C"/>
<path d="M460.323 6.44312C460.323 7.59714 459.361 8.55881 458.207 8.55881C457.053 8.55881 456.091 7.59714 456.091 6.44312C456.091 5.28911 457.053 4.32743 458.207 4.32743C459.361 4.23126 460.323 5.19294 460.323 6.44312Z" fill="#ACAFFF"/>
<path d="M433.68 22.022H428.485V27.215H433.68V22.022Z" fill="#FF7C71"/>
<path d="M433.68 31.2539H428.485V36.447H433.68V31.2539Z" fill="#ACAFFF"/>
<path d="M455.996 32.4082H438.778C437.912 32.4082 437.143 33.0814 437.143 33.8507C437.143 34.6201 437.816 35.2932 438.778 35.2932H455.996C456.862 35.2932 457.631 34.6201 457.631 33.8507C457.631 33.0814 456.862 32.4082 455.996 32.4082Z" fill="#FFDECB"/>
<path d="M455.996 23.1758H438.778C437.912 23.1758 437.143 23.849 437.143 24.6183C437.143 25.3876 437.816 26.0608 438.778 26.0608H455.996C456.862 26.0608 457.631 25.3876 457.631 24.6183C457.631 23.849 456.862 23.1758 455.996 23.1758Z" fill="#FFDECB"/>
<path d="M428.582 62.6046C428.582 63.374 429.255 64.0471 430.025 64.0471H455.996C456.766 64.0471 457.439 63.374 457.439 62.6046C457.439 61.8353 456.766 61.1621 455.996 61.1621H430.025C429.159 61.1621 428.582 61.8353 428.582 62.6046Z" fill="#FFDECB"/>
<path d="M428.485 56.7384C428.485 57.5078 429.159 58.1809 429.928 58.1809H455.9C456.669 58.1809 457.343 57.5078 457.343 56.7384C457.343 55.9691 456.669 55.2959 455.9 55.2959H429.928C429.159 55.2959 428.485 55.9691 428.485 56.7384Z" fill="#FFDECB"/>
<path d="M428.485 50.8722C428.485 51.6415 429.159 52.3147 429.928 52.3147H455.9C456.669 52.3147 457.343 51.6415 457.343 50.8722C457.343 50.1029 456.669 49.4297 455.9 49.4297H429.928C429.159 49.4297 428.485 50.1029 428.485 50.8722Z" fill="#FFDECB"/>
<path d="M428.485 45.006C428.485 45.7753 429.159 46.4485 429.928 46.4485H455.9C456.669 46.4485 457.343 45.7753 457.343 45.006C457.343 44.2367 456.669 43.5635 455.9 43.5635H429.928C429.159 43.5635 428.485 44.1405 428.485 45.006Z" fill="#FFDECB"/>
<path d="M417.518 44.7174C417.518 55.392 408.861 64.0471 398.184 64.0471C387.507 64.0471 378.85 55.392 378.85 44.7174C378.85 42.0247 379.427 39.5244 380.389 37.2163L398.28 44.7174L397.318 25.3877C397.607 25.3877 397.895 25.3877 398.28 25.3877C408.861 25.3877 417.518 34.0428 417.518 44.7174Z" fill="#ACAFFF"/>
<path d="M395.491 22.3105C389.72 22.5991 384.622 25.3879 381.255 29.6193C380.197 30.9656 379.235 32.5043 378.562 34.1392L396.453 41.6403L395.491 22.3105Z" fill="#FF7C71"/>
<path d="M580.911 3.36587V124.153C580.911 127.627 578.057 130.48 574.581 130.48H520.233C516.849 130.48 514 127.718 514 124.249V3.36587C514 1.81494 515.315 0.5 516.867 0.5H578.044C579.596 0.5 580.911 1.81494 580.911 3.36587Z" fill="white"/>
<path d="M580.911 3.36587V124.153C580.911 127.627 578.057 130.48 574.581 130.48H520.233C516.849 130.48 514 127.718 514 124.249V3.36587C514 1.81494 515.315 0.5 516.867 0.5H578.044C579.596 0.5 580.911 1.81494 580.911 3.36587Z" stroke="#6E62FF"/>
<path d="M580.911 3.36587V124.153C580.911 127.627 578.057 130.48 574.581 130.48H520.233C516.849 130.48 514 127.718 514 124.249V3.36587C514 1.81494 515.315 0.5 516.867 0.5H578.044C579.596 0.5 580.911 1.81494 580.911 3.36587Z" stroke="white" stroke-opacity="0.5"/>
<path d="M571.214 91.7439H526.004C525.139 91.7439 524.562 91.0707 524.562 90.3014C524.562 89.4359 525.235 88.7627 526.004 88.7627H571.214C572.08 88.7627 572.657 89.4359 572.657 90.3014C572.657 91.0707 572.08 91.7439 571.214 91.7439Z" fill="#FFDECB"/>
<path d="M571.214 101.264H526.004C525.139 101.264 524.562 100.591 524.562 99.7257C524.562 98.8602 525.235 98.187 526.004 98.187H571.214C572.08 98.187 572.657 98.8602 572.657 99.7257C572.657 100.591 572.08 101.264 571.214 101.264Z" fill="#FFDECB"/>
<path d="M571.214 110.689H526.004C525.139 110.689 524.562 110.016 524.562 109.15C524.562 108.285 525.235 107.708 526.004 107.708H571.214C572.08 107.708 572.657 108.381 572.657 109.15C572.657 110.016 572.08 110.689 571.214 110.689Z" fill="#FFDECB"/>
<path d="M571.214 120.114H526.004C525.139 120.114 524.562 119.44 524.562 118.575C524.562 117.709 525.235 117.132 526.004 117.132H571.214C572.08 117.132 572.657 117.805 572.657 118.575C572.657 119.44 572.08 120.114 571.214 120.114Z" fill="#FFDECB"/>
<path d="M581.411 3.36587V12.598H513.5V3.36587C513.5 1.53868 515.039 0 516.867 0H578.044C579.872 0 581.411 1.53868 581.411 3.36587Z" fill="#3B0E09"/>
<path d="M564.962 5.67377C564.962 6.92395 564 7.88563 562.75 7.88563C561.499 7.88563 560.537 6.92395 560.537 5.67377C560.537 4.42359 561.499 3.46191 562.75 3.46191C564 3.46191 564.962 4.51976 564.962 5.67377Z" fill="#FF7C71"/>
<path d="M572.08 5.67377C572.08 6.92395 571.118 7.88563 569.868 7.88563C568.617 7.88563 567.655 6.92395 567.655 5.67377C567.655 4.42359 568.617 3.46191 569.868 3.46191C571.118 3.46191 572.08 4.51976 572.08 5.67377Z" fill="#EAAB2C"/>
<path d="M578.909 5.67377C578.909 6.92395 577.947 7.88563 576.697 7.88563C575.446 7.88563 574.484 6.92395 574.484 5.67377C574.484 4.42359 575.446 3.46191 576.697 3.46191C577.947 3.46191 578.909 4.51976 578.909 5.67377Z" fill="#ACAFFF"/>
<path d="M534.566 64.3364H526.967V82.8006H534.566V64.3364Z" fill="#ACAFFF"/>
<path d="M545.82 51.2573H538.221V82.8003H545.82V51.2573Z" fill="#FF7C71"/>
<path d="M558.229 41.5444H550.63V82.7042H558.229V41.5444Z" fill="#86BC44"/>
<path d="M570.445 30.1968H562.846V82.7044H570.445V30.1968Z" fill="#EAAB2C"/>
<path d="M556.401 22.1186L561.788 24.1381L561.115 17.8872L556.401 22.1186Z" fill="#FFDECB"/>
<path d="M524.851 55.3925C524.658 55.3925 524.37 55.2963 524.273 55.0078C524.177 54.7193 524.273 54.3346 524.562 54.2384C524.754 54.1423 547.744 45.391 558.998 21.7337C559.095 21.4452 559.479 21.3491 559.768 21.4452C560.056 21.5414 560.153 21.9261 560.056 22.2146C548.61 46.2565 525.235 55.2001 525.043 55.2963C524.947 55.3925 524.947 55.3925 524.851 55.3925Z" fill="#FFDECB"/>
<path d="M186.548 43.6587H152.978L147.976 10H181.642L186.548 43.6587Z" fill="#954F1B"/>
<path d="M147.976 10L143.358 43.6587H152.978L147.976 10Z" fill="#752F00"/>
<path d="M154.997 41.2546L150.765 12.4043H179.622L183.854 41.2546H154.997Z" fill="#DDDAC7"/>
<path d="M155.382 40.7739L151.342 12.8853H179.237L183.277 40.7739H155.382Z" fill="white"/>
<path d="M176.736 16.3472L179.814 37.4079H157.883L154.805 16.3472H176.736Z" fill="#EAAB2C"/>
<path d="M165.771 26.4445C165.771 26.4445 170.195 21.2514 177.506 21.6361L179.814 37.4076L165.771 26.4445Z" fill="#3C7341"/>
<path d="M155.767 23.2713C155.767 23.2713 162.019 22.0211 168.56 26.8295C175.101 31.7341 179.718 37.3118 179.718 37.3118H157.787L155.767 23.2713Z" fill="#86BC44"/>
<path d="M203.862 57.6991H63.4233L61.5957 51.2559H205.979L203.862 57.6991Z" fill="#DDBBA3"/>
<path d="M206.075 43.6587H61.5V51.2559H206.075V43.6587Z" fill="#ACAFFF"/>
<path d="M68.7139 51.2559L71.792 57.6991H79.1025L81.1225 51.2559H68.7139Z" fill="#898EFF"/>
<path d="M196.648 51.2559L193.57 57.6991H186.259L184.239 51.2559H196.648Z" fill="#898EFF"/>
<path d="M119.984 35.4845H121.042V33.8496L80.5454 33.9458C79.1987 33.9458 77.9482 34.5228 77.0825 35.3883C76.2168 36.2538 75.6396 37.504 75.6396 38.8503C75.6396 41.543 77.852 43.6587 80.5454 43.6587L121.042 43.5626V42.2162H119.984V35.4845Z" fill="#FF7C71"/>
<path d="M120.272 35.4844V42.2161L83.1426 42.3123C81.3149 42.3123 79.8721 40.7736 79.8721 38.9464C79.8721 37.9847 80.2568 37.2154 80.834 36.5422C81.4111 35.9652 82.2768 35.5805 83.1426 35.5805L120.272 35.4844Z" fill="white"/>
<path d="M120.272 37.2153V38.2732H84.104C83.8154 38.2732 83.623 38.0808 83.623 37.7923C83.623 37.5038 83.8154 37.3115 84.104 37.3115L120.272 37.2153Z" fill="#FFDECB"/>
<path d="M120.272 39.7158V40.7737H84.104C83.8154 40.7737 83.623 40.5813 83.623 40.2928C83.623 40.0043 83.8154 39.812 84.104 39.812L120.272 39.7158Z" fill="#FFDECB"/>
<path d="M116.328 25.7716H117.387V24.1367L76.8901 24.2329C75.5434 24.2329 74.293 24.8099 73.4272 25.6754C72.5615 26.5409 71.9844 27.7911 71.9844 29.1374C71.9844 31.8301 74.1968 33.9458 76.8901 33.9458L117.387 33.8497V32.5033H116.328V25.7716Z" fill="#86BC44"/>
<path d="M116.617 25.7715V32.5032L79.4873 32.5994C77.6597 32.5994 76.2168 31.0607 76.2168 29.2335C76.2168 28.2718 76.6016 27.5025 77.1787 26.8293C77.7559 26.2523 78.6216 25.8677 79.4873 25.8677L116.617 25.7715Z" fill="white"/>
<path d="M116.617 27.5024V28.5603H80.4487C80.1602 28.5603 79.9678 28.3679 79.9678 28.0794C79.9678 27.7909 80.1602 27.5986 80.4487 27.5986L116.617 27.5024Z" fill="#FFDECB"/>
<path d="M116.617 30.0029V31.0608H80.4487C80.1602 31.0608 79.9678 30.8684 79.9678 30.5799C79.9678 30.2914 80.1602 30.0991 80.4487 30.0991L116.617 30.0029Z" fill="#FFDECB"/>
<path d="M123.447 16.0587H124.505V14.4238L84.0083 14.52C82.6616 14.52 81.4111 15.097 80.5454 15.9625C79.6797 16.828 79.1025 18.0782 79.1025 19.4246C79.1025 22.1172 81.3149 24.2329 84.0083 24.2329L124.505 24.1368V22.7904H123.447V16.0587Z" fill="#ACAFFF"/>
<path d="M123.735 16.0586V22.7903H86.6055C84.7778 22.7903 83.335 21.2517 83.335 19.4245C83.335 18.4628 83.7197 17.6934 84.2969 17.0203C84.874 16.4433 85.7397 16.0586 86.6055 16.0586H123.735Z" fill="white"/>
<path d="M123.735 17.7896V18.8474H87.5669C87.2783 18.8474 87.0859 18.6551 87.0859 18.3666C87.0859 18.0781 87.2783 17.8857 87.5669 17.8857L123.735 17.7896Z" fill="#FFDECB"/>
<path d="M123.735 20.29V21.3479H87.5669C87.2783 21.3479 87.0859 21.1555 87.0859 20.867C87.0859 20.5785 87.2783 20.3862 87.5669 20.3862L123.735 20.29Z" fill="#FFDECB"/>
<path d="M153.536 204.875L156.037 183.718L156.133 182.756L156.518 179.871L156.614 178.814L156.903 176.025L156.999 175.063L157.768 169.101H122.37L123.043 175.063L123.14 176.025L123.428 178.814L123.621 179.871L123.909 182.756L124.005 183.718L126.506 204.875H153.536Z" fill="#ACAFFF"/>
<path d="M156.998 175.063L156.902 176.025H123.139L123.043 175.063H156.998Z" fill="#898EFF"/>
<path d="M156.614 178.813L156.517 179.871H123.62L123.428 178.813H156.614Z" fill="#898EFF"/>
<path d="M156.132 182.756L156.036 183.718H124.004L123.908 182.756H156.132Z" fill="#898EFF"/>
<path d="M131.7 152.752C131.7 152.752 123.813 142.847 119.58 149.963C115.348 157.08 124.486 162.85 130.835 162.946C137.183 163.138 131.7 152.752 131.7 152.752Z" fill="#3C7341"/>
<path d="M147.957 159.676C147.957 159.676 154.498 151.406 158.057 157.368C161.52 163.33 154.017 168.139 148.63 168.235C143.34 168.331 147.957 159.676 147.957 159.676Z" fill="#3C7341"/>
<path d="M149.688 169.101V148.713C149.688 143.328 145.36 139 139.973 139C134.586 139 130.258 143.328 130.258 148.713V169.101H149.688Z" fill="#86BC44"/>
<path d="M595.84 352.589H523.6C523.119 352.589 522.734 352.204 522.734 351.723V347.492C522.734 347.011 523.119 346.626 523.6 346.626H595.84C596.321 346.626 596.705 347.011 596.705 347.492V351.723C596.705 352.204 596.321 352.589 595.84 352.589Z" fill="#FFE7B9"/>
<path d="M526.004 281.906H593.627C594.781 281.906 595.647 282.771 595.647 283.925V292.196C595.647 293.35 594.781 294.215 593.627 294.215H526.004C524.85 294.215 523.984 293.35 523.984 292.196V283.925C523.984 282.771 524.85 281.906 526.004 281.906Z" fill="#F5CBB8"/>
<path d="M559.094 249.689H552.553C552.553 249.689 520.041 182.757 528.794 172.37C540.241 159.099 555.054 197.182 559.094 249.689Z" fill="#86BC44"/>
<path d="M557.074 249.689H556.016L535.335 181.891C535.238 181.603 535.431 181.314 535.719 181.218C536.008 181.122 536.297 181.314 536.393 181.603L557.074 249.689Z" fill="#3C7341"/>
<path d="M563.038 249.689H569.579C569.579 249.689 602.092 182.757 593.338 172.37C581.892 159.099 567.078 197.182 563.038 249.689Z" fill="#86BC44"/>
<path d="M565.059 249.689H566.117L586.798 181.891C586.894 181.603 586.702 181.314 586.413 181.218C586.124 181.122 585.836 181.314 585.74 181.603L565.059 249.689Z" fill="#3C7341"/>
<path d="M564.962 249.689H559.19C546.301 188.142 551.495 136.596 564.481 146.213C577.467 155.926 564.962 249.689 564.962 249.689Z" fill="#86BC44"/>
<path d="M561.499 158.811L560.826 249.689H559.768L560.441 158.811C560.441 158.522 560.633 158.33 560.922 158.33C561.307 158.33 561.499 158.522 561.499 158.811Z" fill="#3C7341"/>
<path d="M590.741 249.016L589.876 251.228L589.298 252.671L587.759 256.806L587.182 258.248L585.643 262.48L585.066 263.922L578.236 282.002H541.107L534.277 263.922L533.7 262.48L532.161 258.248L531.584 256.806L530.045 252.671L529.468 251.228L528.602 249.016C528.025 247.478 529.179 245.843 530.814 245.843H588.24C590.164 245.843 591.318 247.478 590.741 249.016Z" fill="#ACAFFF"/>
<path d="M589.875 251.228L589.394 252.671H530.237L529.756 251.228H589.875Z" fill="#898EFF"/>
<path d="M587.855 256.806L587.278 258.248H532.353L531.775 256.806H587.855Z" fill="#898EFF"/>
<path d="M585.642 262.383L585.161 263.826H534.469L533.892 262.383H585.642Z" fill="#898EFF"/>
<path d="M549.86 294.215L547.84 300.851L519.175 393.268H513.5L531.68 302.774L533.412 294.215H549.86Z" fill="#E9CCA2"/>
<path d="M533.411 294.215H549.86L547.84 300.851L531.68 302.774L533.411 294.215Z" fill="#FFE7B9"/>
<path d="M606.228 393.268H600.649L571.119 298.158L569.868 294.215H586.317L586.798 296.331L606.228 393.268Z" fill="#E9CCA2"/>
<path d="M586.798 296.331L571.119 298.158L569.868 294.215H586.317L586.798 296.331Z" fill="#FFE7B9"/>
<path d="M594.3 339.895H525.235C523.888 339.895 522.83 338.837 522.83 337.491V336.529C522.83 335.183 523.888 334.125 525.235 334.125H594.3C595.647 334.125 596.705 335.183 596.705 336.529V337.491C596.705 338.837 595.647 339.895 594.3 339.895Z" fill="#F5CBB8"/>
</svg>
